<svg xmlns="http://www.w3.org/2000/svg" width="65" height="21" viewBox="0 0 65 21">
    <g fill="none" fill-rule="evenodd">
        <g fill-rule="nonzero">
            <g>
                <g>
                    <g>
                        <g fill="#5F259F" transform="translate(-407 -1096) translate(82 1071) translate(266 25) translate(59) translate(.455)">
                            <ellipse cx="10.081" cy="10.07" rx="8.366" ry="8.359" transform="rotate(-76.714 10.08 10.07)"/>
                            <path d="M43.993 14.851v-3.038c0-.748-.28-1.122-.98-1.122-.28 0-.607.047-.794.094v4.44c0 .14-.14.28-.28.28h-1.074c-.14 0-.28-.14-.28-.28v-5.188c0-.187.14-.328.28-.374.7-.234 1.4-.374 2.148-.374 1.68 0 2.614.888 2.614 2.524v3.459c0 .14-.14.28-.28.28h-.653c-.42 0-.7-.327-.7-.7zm4.203-1.823l-.047.42c0 .562.374.89.98.89.468 0 .888-.141 1.355-.375.046 0 .093-.047.14-.047.093 0 .14.047.187.094.046.047.14.187.14.187.093.14.186.327.186.467 0 .234-.14.468-.326.561-.514.28-1.121.42-1.775.42-.747 0-1.354-.186-1.82-.56-.468-.42-.748-.982-.748-1.683V11.58c0-1.449.934-2.337 2.521-2.337 1.541 0 2.429.841 2.429 2.337v1.122c0 .14-.14.28-.28.28h-2.942v.047zM48.149 12h1.774v-.468c0-.56-.326-.934-.887-.934-.56 0-.887.327-.887.934V12zm11.907 1.028l-.047.42c0 .562.374.89.981.89.467 0 .887-.141 1.354-.375.047 0 .094-.047.14-.047.094 0 .14.047.187.094.047.047.14.187.14.187.093.14.187.327.187.467 0 .234-.14.468-.327.561-.514.28-1.12.42-1.774.42-.747 0-1.355-.186-1.821-.56-.467-.42-.748-.982-.748-1.683V11.58c0-1.449.934-2.337 2.522-2.337 1.54 0 2.428.841 2.428 2.337v1.122c0 .14-.14.28-.28.28h-2.942v.047zM60.01 12h1.775v-.468c0-.56-.327-.934-.887-.934s-.888.327-.888.934V12zm-27.456 3.552h.654c.14 0 .28-.14.28-.28v-3.46c0-1.588-.84-2.523-2.242-2.523-.42 0-.887.093-1.167.187v-1.73c0-.374-.327-.701-.7-.701h-.654c-.14 0-.28.14-.28.28v7.947c0 .14.14.28.28.28h1.074c.14 0 .28-.14.28-.28v-4.394c.234-.093.56-.14.794-.14.7 0 .98.327.98 1.122v3.038c.047.327.327.654.7.654zm7.05-3.926v1.73c0 1.449-.98 2.337-2.614 2.337-1.588 0-2.615-.888-2.615-2.338v-1.73c0-1.448.98-2.336 2.615-2.336 1.634 0 2.615.888 2.615 2.337zm-1.633 0c0-.561-.327-.935-.934-.935s-.934.327-.934.935v1.73c0 .56.327.888.934.888s.934-.328.934-.889v-1.73zm-10.413-.795c0 1.496-1.121 2.524-2.615 2.524-.374 0-.7-.046-1.028-.187v2.104c0 .14-.14.28-.28.28H22.56c-.14 0-.28-.14-.28-.28V7.84c0-.187.14-.328.28-.374.7-.234 1.401-.374 2.148-.374 1.681 0 2.849 1.028 2.849 2.617v1.122zm-1.681-1.215c0-.748-.514-1.122-1.214-1.122-.42 0-.7.14-.7.14v3.085c.28.14.42.187.746.187.7 0 1.214-.42 1.214-1.121v-1.17h-.046zM57.72 10.83c0 1.496-1.12 2.524-2.615 2.524-.373 0-.7-.046-1.027-.187v2.104c0 .14-.14.28-.28.28h-1.074c-.14 0-.28-.14-.28-.28V7.84c0-.187.14-.328.28-.374.7-.234 1.4-.374 2.148-.374 1.681 0 2.848 1.028 2.848 2.617v1.122zm-1.68-1.215c0-.748-.514-1.122-1.215-1.122-.42 0-.7.14-.7.14v3.085c.28.14.42.187.747.187.7 0 1.214-.42 1.214-1.121v-1.17h-.047z"/>
                        </g>
                        <path fill="#FFF" d="M13.455 8.689c0-.312-.283-.58-.612-.58h-1.13L9.125 5.301c-.235-.268-.612-.357-.988-.268l-.894.268c-.141.044-.188.223-.094.312l2.823 2.541H5.69c-.141 0-.235.09-.235.223v.446c0 .312.282.58.611.58h.66v2.139c0 1.605.893 2.541 2.4 2.541.47 0 .846-.044 1.317-.223v1.427c0 .4.33.713.753.713h.659c.14 0 .282-.134.282-.267V9.358h1.082c.141 0 .236-.09.236-.223v-.446zm-3.012 3.834c-.283.134-.659.178-.941.178-.753 0-1.13-.357-1.13-1.159v-2.14h2.07v3.12z" transform="translate(-407 -1096) translate(82 1071) translate(266 25) translate(59)"/>
                    </g>
                </g>
            </g>
        </g>
    </g>
</svg>
